<?xml version="1.0" encoding="UTF-8" standalone="no"?>
<svg
   xmlns:dc="http://purl.org/dc/elements/1.1/"
   xmlns:cc="http://creativecommons.org/ns#"
   xmlns:rdf="http://www.w3.org/1999/02/22-rdf-syntax-ns#"
   xmlns:svg="http://www.w3.org/2000/svg"
   xmlns="http://www.w3.org/2000/svg"
   xmlns:sodipodi="http://sodipodi.sourceforge.net/DTD/sodipodi-0.dtd"
   xmlns:inkscape="http://www.inkscape.org/namespaces/inkscape"
   width="300mm"
   height="300mm"
   viewBox="0 0 300 300"
   version="1.1"
   id="svg8"
   inkscape:export-filename="/Users/akmb2/Downloads/benri_logov2/logo_300x300.png"
   inkscape:export-xdpi="98.559998"
   inkscape:export-ydpi="98.559998"
   inkscape:version="1.0.2 (e86c8708, 2021-01-15)"
   sodipodi:docname="logo_default.svg">
  <defs
     id="defs2" />
  <sodipodi:namedview
     id="base"
     pagecolor="#ffffff"
     bordercolor="#666666"
     borderopacity="1.0"
     inkscape:pageopacity="0.0"
     inkscape:pageshadow="2"
     inkscape:zoom="0.35"
     inkscape:cx="400"
     inkscape:cy="560"
     inkscape:document-units="mm"
     inkscape:current-layer="g889"
     inkscape:document-rotation="0"
     showgrid="false"
     inkscape:window-width="1252"
     inkscape:window-height="847"
     inkscape:window-x="43"
     inkscape:window-y="25"
     inkscape:window-maximized="0" />
  <metadata
     id="metadata5">
    <rdf:RDF>
      <cc:Work
         rdf:about="">
        <dc:format>image/svg+xml</dc:format>
        <dc:type
           rdf:resource="http://purl.org/dc/dcmitype/StillImage" />
        <dc:title />
      </cc:Work>
    </rdf:RDF>
  </metadata>
  <g
     inkscape:label="Layer 1"
     inkscape:groupmode="layer"
     id="layer1">
    <g
       id="g889"
       transform="matrix(0.14916772,0,0,-0.14916772,-150.93382,356.6698)">
      <g
         id="g970"
         transform="matrix(0.29893782,0,0,0.29893782,1463.4539,486.66489)">
        <path
           d="M 402.859,109.93 C 392.539,90.3203 375.508,76.8984 351.762,69.6719 328.023,62.4492 295.508,58.8398 254.219,58.8398 c -55.063,0 -103.223,0.3399 -144.512,1.0313 -11.8047,0.1992 -22.3828,0.3906 -31.9961,0.5898 V 350.961 H 245.961 c 43.355,-0.691 77.578,-5.52 102.707,-14.449 25.109,-8.953 42.996,-24.442 53.676,-46.453 10.66,-22.039 16,-53.34 16,-93.938 0,-37.851 -5.16,-66.57 -15.485,-86.191 z M 228.414,669.91 c 42.66,0 76.547,-3.441 101.676,-10.32 25.109,-6.879 42.996,-19.961 53.676,-39.219 10.66,-19.269 16,-47.152 16,-83.609 0,-35.102 -5,-62.293 -14.969,-81.551 -9.984,-19.27 -26.16,-32.512 -48.512,-39.742 -22.375,-7.219 -52.484,-11.188 -90.324,-11.867 H 77.7109 V 669.48 c 18.1485,0.282 39.0431,0.43 62.9651,0.43 26.144,0 55.383,0 87.738,0 z M 345.055,375.73 v 4.129 c 42.66,4.129 73.453,19.61 92.386,46.45 18.914,26.839 28.383,65.711 28.383,116.64 0,48.852 -7.578,86.711 -22.711,113.551 -15.14,26.84 -39.738,45.582 -73.8,56.25 -34.063,10.672 -79.997,16 -137.805,16 -33.719,0 -62.801,-0.168 -87.223,-0.512 -24.43,-0.359 -46.9647,-1.039 -67.6092,-2.066 C 56.0313,725.141 34.3555,723.238 11.6445,720.5 V 8.26172 C 37.793,6.19922 62.5625,4.48828 85.9688,3.10156 109.355,1.73047 134.996,0.878906 162.867,0.511719 190.738,0.179688 224.285,0 263.512,0 c 53.676,0 97.023,5.33984 130.058,16 33.032,10.6602 56.934,29.4219 71.739,56.25 14.789,26.8516 22.195,64.68 22.195,113.551 0,57.121 -10.5,101.84 -31.484,134.187 -21,32.344 -57.985,50.922 -110.965,55.742"
           style="fill:#4aaea3;fill-opacity:1;fill-rule:nonzero;stroke:none"
           id="path891" />
        <path
           d="m 959.723,644.109 c 12.031,12.391 29.418,18.582 52.127,18.582 h 290.05 l 3.1,52.641 c -32.35,2.066 -65.54,3.617 -99.6,4.648 -34.07,1.032 -68.31,1.551 -102.71,1.551 -34.42,0 -68.49,0 -102.19,0 -37.859,0 -68.309,-10.679 -91.355,-32 -23.067,-21.34 -34.579,-49.902 -34.579,-85.679 V 124.898 c 0,-35.0972 11.512,-63.4761 34.579,-85.1597 23.046,-21.6797 53.496,-32.51955 91.355,-32.51955 33.7,0 67.77,0.17969 102.19,0.51953 34.4,0.35156 68.64,0.86328 102.71,1.55078 34.06,0.67969 67.25,2.06254 99.6,4.13284 l -3.1,51.6172 h -290.05 c -22.709,0 -40.096,6.3398 -52.127,19.0898 C 947.676,96.8516 941.66,115.25 941.66,139.352 v 219.867 h 318.96 v 54.703 H 941.66 v 175.476 c 0,24.082 6.016,42.332 18.063,54.711"
           style="fill:#4aaea3;fill-opacity:1;fill-rule:nonzero;stroke:none"
           id="path893" />
        <path
           d="m 2150.38,175.48 c 0,-16.519 0.33,-33.378 1.03,-50.582 0.68,-17.207 1.03,-34.4097 1.03,-51.6089 h -21.68 c -7.58,16.5117 -15.48,33.0429 -23.74,49.5509 -8.25,16.512 -16.17,31.992 -23.74,46.441 l -264.25,528.508 c -3.44,7.563 -7.74,13.242 -12.9,17.031 -5.16,3.77 -11.87,5.68 -20.12,5.68 h -69.17 c -19.27,0 -28.9,-9.648 -28.9,-28.91 V 8.26172 h 67.1 V 571.852 c 0,14.457 -0.19,28.91 -0.52,43.359 -0.36,14.449 -0.87,28.551 -1.55,42.32 h 19.62 c 4.8,-13.082 10.99,-27.359 18.57,-42.84 7.57,-15.48 14.46,-29.769 20.65,-42.839 L 2084.32,30.9609 c 3.43,-7.5703 7.74,-13.25 12.9,-17.0312 5.16,-3.7891 11.87,-5.66798 20.12,-5.66798 h 72.26 c 18.58,0 27.87,9.62888 27.87,28.91018 V 720.5 h -67.09 V 175.48"
           style="fill:#4aaea3;fill-opacity:1;fill-rule:nonzero;stroke:none"
           id="path895" />
        <path
           d="M 2879.11,372.629 H 2708.8 v 296.473 c 8.45,0.109 17.72,0.207 27.86,0.296 39.9,0.34 87.39,0.512 142.45,0.512 38.54,0 68.99,-4.121 91.36,-12.379 22.35,-8.261 38.35,-23.07 48,-44.39 9.63,-21.34 14.44,-51.61 14.44,-90.832 0,-38.547 -4.81,-68.649 -14.44,-90.321 -9.65,-21.679 -25.65,-36.816 -48,-45.418 -22.37,-8.609 -52.82,-13.261 -91.36,-13.941 z m 155.87,-89.797 c -8.95,13.758 -18.94,25.109 -29.94,34.066 -11.02,8.934 -22.36,15.122 -34.06,18.582 v 4.122 c 30.96,4.808 56.08,14.097 75.35,27.867 19.26,13.761 33.38,33.551 42.32,59.363 8.94,25.797 13.42,58.656 13.42,98.566 0,53.684 -7.4,95.133 -22.19,124.391 -14.8,29.242 -38.37,49.883 -70.71,61.93 -32.35,12.031 -75.01,18.07 -128,18.07 -37.16,0 -68.99,-0.18 -95.48,-0.519 -26.49,-0.36 -50.75,-1.211 -72.77,-2.579 -22.03,-1.39 -45.77,-3.453 -71.22,-6.191 V 8.26172 h 67.1 V 315.551 c 18.82,-0.531 41.19,-0.949 67.61,-1.242 31.3,-0.348 67.25,-0.508 107.87,-0.508 25.45,0 46.61,-6.199 63.47,-18.582 16.86,-12.387 30.1,-33.387 39.75,-62.969 L 3055.63,8.26172 h 72.25 L 3055.63,234.309 c -4.83,18.589 -11.71,34.75 -20.65,48.523"
           style="fill:#4aaea3;fill-opacity:1;fill-rule:nonzero;stroke:none"
           id="path897" />
        <path
           d="M 3507.73,720.5 V 8.26172 h 67.1 V 720.5 h -67.1"
           style="fill:#4aaea3;fill-opacity:1;fill-rule:nonzero;stroke:none"
           id="path899" />
      </g>
      <path
         d="m 2011.9223,2196.5314 c -253.5981,0 -487.5623,-134.9059 -615.2329,-353.3634 l 202.1287,-72.3697 638.6162,-228.6528 239.0617,50.2198 230.4122,48.4109 c -72.419,322.9915 -362.1116,555.7552 -694.9859,555.7552"
         style="fill:#90d9cf;fill-opacity:1;fill-rule:nonzero;stroke:none;stroke-width:1.64439"
         id="path909" />
      <path
         d="m 1357.9475,1766.3091 c -1.8417,-4.259 -3.7656,-8.4851 -5.5251,-12.7605 -3.223,-7.8438 -6.1665,-15.7862 -9.0935,-23.7286 -1.332,-3.6176 -2.779,-7.2024 -4.0616,-10.8694 -4.0288,-11.5108 -7.778,-23.1202 -11.1819,-34.8282 -0.033,-0.099 -0.066,-0.1974 -0.099,-0.296 -3.4532,-11.8397 -6.5447,-23.7944 -9.3566,-35.8313 -0.8715,-3.7493 -1.5621,-7.5149 -2.3679,-11.2641 -1.8088,-8.3207 -3.5683,-16.6248 -5.0812,-25.0112 -0.8386,-4.6866 -1.4964,-9.406 -2.2363,-14.1089 -1.2004,-7.5478 -2.368,-15.0955 -3.3382,-22.7091 -0.6413,-5.0976 -1.1181,-10.2281 -1.6608,-15.3422 -0.5098,-4.8838 -0.9373,-9.7676 -1.3484,-14.6679 l 432.3107,-108.1517 440.9602,92.5299 -795.0965,284.6608 c -2.2693,-4.3248 -4.5385,-8.6495 -6.7091,-13.0236 -2.2364,-4.4563 -4.5056,-8.9291 -6.6269,-13.4183 -3.3217,-7.0051 -6.4131,-14.0924 -9.4882,-21.1797"
         style="fill:#7cd2c3;fill-opacity:1;fill-rule:nonzero;stroke:none;stroke-width:1.64439"
         id="path911" />
      <path
         d="m 2722.7273,1528.4806 c -0.4769,7.5642 -0.9867,15.1449 -1.6937,22.6926 -0.3947,4.2426 -0.9045,8.4687 -1.3978,12.7112 -0.7728,6.9064 -1.5786,13.8129 -2.5652,20.7029 -0.6249,4.407 -1.332,8.781 -2.0391,13.1716 -0.5755,3.5848 -1.2333,7.1366 -1.8746,10.705 l -416.4423,-87.4653 37.9361,-13.5662 380.5288,-136.1228 c 0.3947,2.4666 0.8387,4.9168 1.2169,7.4162 0.6084,4.0946 1.1675,8.2056 1.7101,12.333 0.8387,6.3967 1.5622,12.8098 2.2364,19.2558 0.4111,3.8643 0.8058,7.7451 1.1511,11.6259 0.6084,7.0708 1.0688,14.1417 1.4635,21.2455 0.1973,3.2888 0.444,6.5611 0.592,9.8499 0.444,10.3597 0.7071,20.7522 0.7071,31.1448 0,11.1654 -0.296,22.3473 -0.8222,33.5292 -0.1645,3.5847 -0.4933,7.1695 -0.7071,10.7707"
         style="fill:#68ccc0;fill-opacity:1;fill-rule:nonzero;stroke:none;stroke-width:1.64439"
         id="path913" />
      <path
         d="m 2235.1485,1508.0902 -427.0979,-89.603 395.0816,-98.8608 463.5542,-115.9954 c 2.4995,5.8211 4.9661,11.6751 7.3175,17.5785 1.5293,3.8314 3.1244,7.63 4.5879,11.4779 4.5714,12.1849 8.9126,24.485 12.8263,36.9495 0.049,0.1808 0.082,0.3453 0.1479,0.5097 3.8644,12.3001 7.3176,24.7646 10.5077,37.3113 1.0689,4.2261 1.9897,8.5179 2.9928,12.7605 1.4142,6.0842 2.7297,12.2014 4.0123,18.3349 l -83.124,29.7306 -390.8063,139.8063"
         style="fill:#49afa2;fill-opacity:1;fill-rule:nonzero;stroke:none;stroke-width:1.64439"
         id="path915" />
      <path
         d="m 1300.2129,1510.047 c -0.296,-8.3371 -0.4768,-16.8715 -0.4768,-25.8663 0,-12.1356 0.3617,-24.2712 0.9702,-36.3904 0.1973,-4.0288 0.5919,-8.0246 0.855,-12.0534 0.5591,-8.1068 1.1347,-16.2137 1.9569,-24.2712 0.4604,-4.7359 1.1017,-9.4553 1.6772,-14.1747 0.9045,-7.3669 1.8253,-14.7337 2.9435,-22.0513 0.7564,-4.9003 1.6115,-9.7677 2.4666,-14.6515 0.7235,-4.1603 1.5457,-8.2877 2.335,-12.4316 l 348.2165,73.1261 -309.0142,77.3193 -51.8312,12.9578 c -0.033,-0.5097 -0.066,-1.003 -0.099,-1.5128"
         style="fill:#49afa2;fill-opacity:1;fill-rule:nonzero;stroke:none;stroke-width:1.64439"
         id="path917" />
      <path
         d="m 1504.3149,986.04516 c 3.3546,-3.42036 6.7749,-6.75842 10.1952,-10.11288 3.1573,-3.09146 6.3309,-6.18291 9.5375,-9.20037 3.5026,-3.30194 7.0709,-6.52001 10.6392,-9.75125 3.2559,-2.95497 6.5118,-5.91487 9.817,-8.80572 3.6506,-3.17367 7.3505,-6.26349 11.0504,-9.36645 3.3545,-2.80698 6.6926,-5.6321 10.0965,-8.3881 3.7821,-3.04541 7.6136,-6.00696 11.4614,-8.97345 3.4533,-2.67213 6.89,-5.364 10.3926,-7.98516 3.8643,-2.8892 7.8109,-5.69125 11.741,-8.50973 3.5683,-2.54388 7.1037,-5.12064 10.7214,-7.60038 3.9959,-2.75436 8.074,-5.41499 12.1356,-8.08713 3.6341,-2.40081 7.2518,-4.823 10.9188,-7.15475 4.1438,-2.61458 8.337,-5.13872 12.5302,-7.67602 3.6999,-2.24131 7.3834,-4.50892 11.1326,-6.6861 4.2425,-2.47316 8.5673,-4.8378 12.8756,-7.22052 3.7656,-2.08838 7.5313,-4.21458 11.3298,-6.23718 4.3741,-2.31202 8.7975,-4.5155 13.2209,-6.73872 3.8479,-1.93874 7.6794,-3.92352 11.5601,-5.7932 4.4892,-2.16566 9.0442,-4.20142 13.5663,-6.27664 3.8972,-1.76608 7.7615,-3.58313 11.6751,-5.29823 4.6208,-1.99794 9.2909,-3.86761 13.9445,-5.78169 3.9301,-1.60492 7.8273,-3.27562 11.8067,-4.81806 4.7523,-1.84337 9.5539,-3.53874 14.3391,-5.2785 3.9466,-1.43885 7.8602,-2.94347 11.8396,-4.3116 4.8839,-1.68221 9.85,-3.2115 14.7831,-4.79176 3.9466,-1.25796 7.8767,-2.58827 11.8561,-3.77552 5.0318,-1.50956 10.113,-2.8596 15.1777,-4.25898 3.963,-1.09188 7.8767,-2.25446 11.8561,-3.27727 5.2785,-1.35498 10.6392,-2.54223 15.9835,-3.77553 3.7985,-0.88632 7.5642,-1.84994 11.3792,-2.66556 5.6731,-1.2152 11.4121,-2.24953 17.1017,-3.32167 3.5683,-0.6742 7.0873,-1.43226 10.6721,-2.04233 6.3967,-1.11161 12.8591,-2.0111 19.3051,-2.93524 2.9271,-0.41768 5.8212,-0.93895 8.7647,-1.31716 9.2085,-1.20205 18.4829,-2.20349 27.7737,-3.04542 h 128.7888 c 95.3419,8.51795 186.359,36.12566 268.5128,79.6001 1.0853,0.56402 2.1213,1.2004 3.2066,1.77923 12.3329,6.60881 24.485,13.53335 36.3904,20.84267 2.4995,1.53586 4.8838,3.20656 7.3833,4.77367 10.3597,6.52495 20.6042,13.23242 30.6021,20.27864 3.4862,2.46002 6.8407,5.09269 10.2775,7.60532 8.7975,6.44931 17.5457,12.98083 26.0472,19.8215 4.1109,3.32167 8.0739,6.82263 12.1191,10.21995 7.5807,6.38517 15.112,12.80159 22.4295,19.50249 4.4728,4.11098 8.7975,8.39462 13.1716,12.62726 6.594,6.34736 13.1716,12.71108 19.519,19.3379 4.6043,4.80156 9.0441,9.76758 13.5169,14.70068 5.8047,6.3967 11.5929,12.8099 17.1839,19.4368 4.5549,5.3936 8.929,10.9516 13.336,16.4932 5.1634,6.5118 10.3268,13.0565 15.2764,19.7656 4.3576,5.8869 8.5344,11.9383 12.7276,17.9897 4.6207,6.6926 9.225,13.4018 13.6484,20.2918 4.0617,6.3309 7.926,12.7769 11.8068,19.2393 4.1603,6.9394 8.2713,13.9116 12.1849,21.0154 3.6835,6.6762 7.2025,13.4511 10.6886,20.2589 2.1706,4.2425 4.259,8.5673 6.3473,12.8756 l -918.393,229.7874 -35.4202,-7.4327 -379.0324,-79.605 c 0.4933,-2.0226 0.9537,-4.0617 1.4635,-6.0843 1.1182,-4.4398 2.3021,-8.8961 3.519,-13.3031 1.2826,-4.7194 2.6146,-9.4388 3.9959,-14.1253 1.299,-4.3741 2.6474,-8.7318 4.0287,-13.073 1.48,-4.6536 2.9764,-9.2743 4.555,-13.8786 1.4635,-4.3083 2.9928,-8.6002 4.5385,-12.8756 1.6609,-4.555 3.3546,-9.0935 5.0976,-13.5827 1.628,-4.2425 3.3053,-8.4522 5.0319,-12.6618 1.8253,-4.4563 3.6999,-8.9126 5.6238,-13.336 1.7924,-4.1604 3.6177,-8.2713 5.4923,-12.3823 2.0061,-4.3741 4.0616,-8.7482 6.15,-13.0729 1.9568,-4.0781 3.9465,-8.1069 5.9691,-12.1356 2.1706,-4.2755 4.3906,-8.5344 6.6434,-12.777 2.1048,-3.963 4.2261,-7.9095 6.4131,-11.8232 2.3351,-4.2096 4.7194,-8.3864 7.1367,-12.5302 2.2692,-3.8643 4.5385,-7.7287 6.8735,-11.5437 2.4831,-4.0945 5.0154,-8.1561 7.5971,-12.1849 2.4008,-3.7657 4.8181,-7.5313 7.2847,-11.2476 2.6475,-4.0124 5.3607,-7.9589 8.0904,-11.9219 2.5488,-3.6341 5.0812,-7.2846 7.6629,-10.8694 2.8119,-3.9137 5.6896,-7.7616 8.5837,-11.6094 2.6475,-3.5519 5.3114,-7.0709 8.0411,-10.557 2.9599,-3.7986 5.9856,-7.5478 9.0277,-11.2806 2.779,-3.4203 5.5745,-6.8406 8.4028,-10.2116 3.1079,-3.667 6.2652,-7.2847 9.4388,-10.8859 2.9106,-3.3381 5.8376,-6.6598 8.8304,-9.9321 3.223,-3.5355 6.4954,-7.00506 9.7842,-10.47472 3.0585,-3.20656 6.1171,-6.42952 9.225,-9.58672"
         style="fill:#0bad9c;fill-opacity:1;fill-rule:nonzero;stroke:none;stroke-width:1.64439"
         id="path919" />
    </g>
  </g>
</svg>
